<svg width="16" height="16" viewBox="0 0 16 16" fill="none" xmlns="http://www.w3.org/2000/svg">
<g id="Property 1=users">
<path id="Vector" d="M14 14V12.6667C14 11.9594 13.719 11.2811 13.219 10.781C12.7189 10.281 12.0406 10 11.3333 10H8.66667C7.95942 10 7.28115 10.281 6.78105 10.781C6.28095 11.2811 6 11.9594 6 12.6667V14M5.33333 2.08667C4.75972 2.23354 4.25131 2.56714 3.88824 3.03488C3.52517 3.50262 3.3281 4.07789 3.3281 4.67C3.3281 5.26212 3.52517 5.83739 3.88824 6.30513C4.25131 6.77287 4.75972 7.10647 5.33333 7.25334M2 14V12.6667C2.00338 12.0781 2.20139 11.5072 2.56315 11.043C2.92492 10.5787 3.43012 10.2471 4 10.1M7.33333 4.66667C7.33333 6.13943 8.52724 7.33333 10 7.33333C11.4728 7.33333 12.6667 6.13943 12.6667 4.66667C12.6667 3.19391 11.4728 2 10 2C8.52724 2 7.33333 3.19391 7.33333 4.66667Z" stroke="#121212" stroke-width="1.4" stroke-linecap="round" stroke-linejoin="round"/>
</g>
</svg>
