<svg width="16" height="16" viewBox="0 0 16 16" fill="none" xmlns="http://www.w3.org/2000/svg">
<g id="u:pricetag-alt">
<g id="Vector">
<mask id="path-1-inside-1_4524_1888" fill="white">
<path d="M11.3334 3.99999C11.4653 3.99999 11.5942 4.03909 11.7038 4.11234C11.8134 4.1856 11.8989 4.28972 11.9493 4.41154C11.9998 4.53335 12.013 4.6674 11.9873 4.79672C11.9615 4.92604 11.898 5.04483 11.8048 5.13806C11.7116 5.2313 11.5928 5.29479 11.4635 5.32051C11.3341 5.34624 11.2001 5.33304 11.0783 5.28258C10.9565 5.23212 10.8523 5.14667 10.7791 5.03704C10.7058 4.9274 10.6667 4.79851 10.6667 4.66666C10.6667 4.48985 10.737 4.32028 10.862 4.19525C10.987 4.07023 11.1566 3.99999 11.3334 3.99999ZM1.52674 7.85332L7.84674 1.54666C7.9089 1.47963 7.98418 1.42611 8.0679 1.38941C8.15162 1.35271 8.24199 1.33362 8.3334 1.33332L12.3334 1.33332C12.4211 1.33282 12.5081 1.34963 12.5893 1.38281C12.6706 1.41599 12.7444 1.46487 12.8067 1.52666L14.4734 3.18666C14.5352 3.24895 14.5841 3.32283 14.6173 3.40405C14.6504 3.48528 14.6672 3.57225 14.6667 3.65999L14.6667 7.65999C14.6643 7.8365 14.5952 8.00557 14.4734 8.13332L8.14674 14.4667C8.01898 14.5885 7.84992 14.6575 7.6734 14.66C7.58567 14.6605 7.49869 14.6437 7.41747 14.6105C7.33624 14.5773 7.26236 14.5284 7.20007 14.4667L1.52674 8.79332C1.46495 8.73103 1.41607 8.65715 1.38289 8.57593C1.34971 8.4947 1.3329 8.40773 1.3334 8.31999C1.33752 8.14579 1.40646 7.9794 1.52674 7.85332ZM7.6734 13.06L13.3334 7.39332V3.93332L12.0667 2.66666L8.6134 2.66666L2.94674 8.32666L7.6734 13.06Z"/>
</mask>
<path d="M11.3334 3.99999C11.4653 3.99999 11.5942 4.03909 11.7038 4.11234C11.8134 4.1856 11.8989 4.28972 11.9493 4.41154C11.9998 4.53335 12.013 4.6674 11.9873 4.79672C11.9615 4.92604 11.898 5.04483 11.8048 5.13806C11.7116 5.2313 11.5928 5.29479 11.4635 5.32051C11.3341 5.34624 11.2001 5.33304 11.0783 5.28258C10.9565 5.23212 10.8523 5.14667 10.7791 5.03704C10.7058 4.9274 10.6667 4.79851 10.6667 4.66666C10.6667 4.48985 10.737 4.32028 10.862 4.19525C10.987 4.07023 11.1566 3.99999 11.3334 3.99999ZM1.52674 7.85332L7.84674 1.54666C7.9089 1.47963 7.98418 1.42611 8.0679 1.38941C8.15162 1.35271 8.24199 1.33362 8.3334 1.33332L12.3334 1.33332C12.4211 1.33282 12.5081 1.34963 12.5893 1.38281C12.6706 1.41599 12.7444 1.46487 12.8067 1.52666L14.4734 3.18666C14.5352 3.24895 14.5841 3.32283 14.6173 3.40405C14.6504 3.48528 14.6672 3.57225 14.6667 3.65999L14.6667 7.65999C14.6643 7.8365 14.5952 8.00557 14.4734 8.13332L8.14674 14.4667C8.01898 14.5885 7.84992 14.6575 7.6734 14.66C7.58567 14.6605 7.49869 14.6437 7.41747 14.6105C7.33624 14.5773 7.26236 14.5284 7.20007 14.4667L1.52674 8.79332C1.46495 8.73103 1.41607 8.65715 1.38289 8.57593C1.34971 8.4947 1.3329 8.40773 1.3334 8.31999C1.33752 8.14579 1.40646 7.9794 1.52674 7.85332ZM7.6734 13.06L13.3334 7.39332V3.93332L12.0667 2.66666L8.6134 2.66666L2.94674 8.32666L7.6734 13.06Z" fill="black"/>
<path d="M11.4635 5.32051L11.7366 6.69361L11.4635 5.32051ZM7.84674 1.54666L8.87324 2.49865L8.85482 2.51851L8.83564 2.53765L7.84674 1.54666ZM8.3334 1.33332L8.3289 -0.0666759H8.3334V1.33332ZM12.3334 1.33332L12.3415 2.73332H12.3334V1.33332ZM12.8067 1.52666L13.7926 0.532679L13.7947 0.534726L12.8067 1.52666ZM14.4734 3.18666L15.4614 2.19471L15.4674 2.20075L14.4734 3.18666ZM14.6667 3.65999L13.2667 3.65999L13.2668 3.6519L14.6667 3.65999ZM14.6667 7.65999H16.0667V7.66973L16.0666 7.67947L14.6667 7.65999ZM14.4734 8.13332L15.4866 9.09947L15.4754 9.11124L15.4639 9.12275L14.4734 8.13332ZM8.14674 14.4667L9.13721 15.4561L9.12519 15.4681L9.11288 15.4799L8.14674 14.4667ZM7.6734 14.66L7.69288 16.0599L7.6815 16.06L7.6734 14.66ZM7.20007 14.4667L6.21416 15.4606L6.21012 15.4566L7.20007 14.4667ZM1.52674 8.79332L0.53678 9.78328L0.532762 9.77923L1.52674 8.79332ZM1.3334 8.31999L-0.0665722 8.3119L-0.0665007 8.2994L-0.066205 8.28691L1.3334 8.31999ZM7.6734 13.06L8.66394 14.0494L7.67329 15.0412L6.68276 14.0492L7.6734 13.06ZM13.3334 7.39332H14.7334V7.97274L14.3239 8.38269L13.3334 7.39332ZM13.3334 3.93332L14.3234 2.94337L14.7334 3.35343V3.93332H13.3334ZM12.0667 2.66666V1.26666L12.6466 1.26666L13.0567 1.67671L12.0667 2.66666ZM8.6134 2.66666L7.62404 1.67613L8.03399 1.26666L8.6134 1.26666V2.66666ZM2.94674 8.32666L1.95609 9.31591L0.966954 8.32538L1.95737 7.33613L2.94674 8.32666ZM11.3334 2.59999C11.7422 2.59999 12.1417 2.7212 12.4816 2.94829L10.926 5.2764C11.0466 5.35698 11.1884 5.39999 11.3334 5.39999V2.59999ZM12.4816 2.94829C12.8214 3.17537 13.0863 3.49814 13.2428 3.87578L10.6559 4.94729C10.7114 5.08129 10.8054 5.19582 10.926 5.2764L12.4816 2.94829ZM13.2428 3.87578C13.3992 4.25341 13.4401 4.66895 13.3604 5.06984L10.6142 4.52359C10.5859 4.66584 10.6004 4.81329 10.6559 4.94729L13.2428 3.87578ZM13.3604 5.06984C13.2806 5.47074 13.0838 5.83898 12.7948 6.12801L10.8149 4.14811C10.7123 4.25067 10.6425 4.38134 10.6142 4.52359L13.3604 5.06984ZM12.7948 6.12801C12.5057 6.41704 12.1375 6.61387 11.7366 6.69361L11.1903 3.94741C11.0481 3.97571 10.9174 4.04555 10.8149 4.14811L12.7948 6.12801ZM11.7366 6.69361C11.3357 6.77336 10.9202 6.73243 10.5425 6.57601L11.614 3.98915C11.48 3.93364 11.3326 3.91912 11.1903 3.94741L11.7366 6.69361ZM10.5425 6.57601C10.1649 6.41959 9.84212 6.1547 9.61503 5.81484L11.9431 4.25924C11.8626 4.13864 11.748 4.04465 11.614 3.98915L10.5425 6.57601ZM9.61503 5.81484C9.38795 5.47497 9.26674 5.07541 9.26674 4.66666L12.0667 4.66666C12.0667 4.52162 12.0237 4.37983 11.9431 4.25924L9.61503 5.81484ZM9.26674 4.66666C9.26674 4.11854 9.48448 3.59288 9.87205 3.2053L11.8519 5.1852C11.9895 5.04768 12.0667 4.86115 12.0667 4.66666L9.26674 4.66666ZM9.87205 3.2053C10.2596 2.81773 10.7853 2.59999 11.3334 2.59999V5.39999C11.5279 5.39999 11.7144 5.32273 11.8519 5.1852L9.87205 3.2053ZM0.537834 6.86233L6.85783 0.555663L8.83564 2.53765L2.51564 8.84432L0.537834 6.86233ZM6.82023 0.594665C7.01293 0.386889 7.24629 0.220961 7.50583 0.107191L8.62996 2.67162C8.72206 2.63125 8.80487 2.57238 8.87324 2.49865L6.82023 0.594665ZM7.50583 0.107191C7.76536 -0.00657773 8.04552 -0.065757 8.3289 -0.0666686L8.33791 2.73332C8.43846 2.73299 8.53787 2.71199 8.62996 2.67162L7.50583 0.107191ZM8.3334 -0.0666759L12.3334 -0.0666759V2.73332L8.3334 2.73332V-0.0666759ZM12.3253 -0.0666524C12.5973 -0.0682249 12.8669 -0.0160931 13.1187 0.0867536L12.06 2.67887C12.1493 2.71536 12.245 2.73386 12.3415 2.7333L12.3253 -0.0666524ZM13.1187 0.0867536C13.3705 0.1896 13.5995 0.341139 13.7926 0.532681L11.8208 2.52063C11.8894 2.5886 11.9706 2.64237 12.06 2.67887L13.1187 0.0867536ZM13.7947 0.534726L15.4614 2.19473L13.4854 4.17859L11.8188 2.51859L13.7947 0.534726ZM15.4674 2.20075C15.6589 2.39386 15.8105 2.62288 15.9133 2.87468L13.3212 3.93343C13.3577 4.02278 13.4115 4.10404 13.4794 4.17256L15.4674 2.20075ZM15.9133 2.87468C16.0162 3.12648 16.0683 3.3961 16.0667 3.66808L13.2668 3.6519C13.2662 3.74841 13.2847 3.84408 13.3212 3.93343L15.9133 2.87468ZM16.0667 3.65999V7.65999H13.2667L13.2667 3.65999L16.0667 3.65999ZM16.0666 7.67947C16.0592 8.209 15.8521 8.7162 15.4866 9.09947L13.4602 7.16718C13.3384 7.29494 13.2693 7.464 13.2669 7.64052L16.0666 7.67947ZM15.4639 9.12275L9.13721 15.4561L7.15627 13.4772L13.4829 7.1439L15.4639 9.12275ZM9.11288 15.4799C8.72961 15.8453 8.22241 16.0525 7.69288 16.0599L7.65393 13.2601C7.47742 13.2626 7.30835 13.3316 7.1806 13.4535L9.11288 15.4799ZM7.6815 16.06C7.40951 16.0615 7.13989 16.0094 6.88809 15.9066L7.94684 13.3144C7.85749 13.278 7.76182 13.2595 7.66531 13.26L7.6815 16.06ZM6.88809 15.9066C6.6363 15.8037 6.40728 15.6522 6.21416 15.4606L8.18598 13.4727C8.11745 13.4047 8.03619 13.3509 7.94684 13.3144L6.88809 15.9066ZM6.21012 15.4566L0.536788 9.78327L2.51669 7.80337L8.19002 13.4767L6.21012 15.4566ZM0.532762 9.77923C0.341228 9.58613 0.189685 9.35711 0.086833 9.1053L2.67895 8.04655C2.64245 7.9572 2.58867 7.87593 2.52071 7.80742L0.532762 9.77923ZM0.086833 9.1053C-0.0160151 8.8535 -0.0681448 8.58388 -0.0665722 8.3119L2.73338 8.32808C2.73394 8.23158 2.71544 8.13591 2.67895 8.04655L0.086833 9.1053ZM-0.066205 8.28691C-0.0538549 7.76432 0.152958 7.26513 0.513796 6.88691L2.53968 8.81973C2.65996 8.69366 2.7289 8.52727 2.73301 8.35307L-0.066205 8.28691ZM6.68287 12.0706L12.3429 6.40396L14.3239 8.38269L8.66394 14.0494L6.68287 12.0706ZM11.9334 7.39332V3.93332L14.7334 3.93332L14.7334 7.39332H11.9334ZM12.3435 4.92327L11.0768 3.65661L13.0567 1.67671L14.3234 2.94337L12.3435 4.92327ZM12.0667 4.06666L8.6134 4.06666V1.26666L12.0667 1.26666V4.06666ZM9.60277 3.65719L3.9361 9.31719L1.95737 7.33613L7.62404 1.67613L9.60277 3.65719ZM3.93738 7.33741L8.66405 12.0707L6.68276 14.0492L1.95609 9.31591L3.93738 7.33741Z" fill="#121212" mask="url(#path-1-inside-1_4524_1888)"/>
</g>
</g>
</svg>
