<svg width="16" height="16" viewBox="0 0 16 16" fill="none" xmlns="http://www.w3.org/2000/svg">
<g id="Property 1=location">
<path id="Vector" d="M1.99995 2L6.33329 14C6.36254 14.0638 6.4095 14.1179 6.46859 14.1558C6.52767 14.1938 6.59641 14.2139 6.66662 14.2139C6.73683 14.2139 6.80556 14.1938 6.86465 14.1558C6.92374 14.1179 6.9707 14.0638 6.99995 14L9.33329 9.33333L14 7C14.0638 6.97075 14.1179 6.92379 14.1558 6.8647C14.1937 6.80561 14.2139 6.73688 14.2139 6.66667C14.2139 6.59646 14.1937 6.52772 14.1558 6.46863C14.1179 6.40954 14.0638 6.36258 14 6.33333L1.99995 2Z" stroke="#121212" stroke-width="1.4" stroke-linecap="round" stroke-linejoin="round"/>
</g>
</svg>
